<?xml version="1.0" encoding="utf-8"?>
<svg version="1.2" baseProfile="tiny-ps" xmlns="http://www.w3.org/2000/svg" viewBox="0 0 2000 2000">
<title>Vision Education</title>
<path style="fill:#fefdf9; stroke:none;" d="M0 0L0 2000L2000 2000L2000 0L0 0z"/>
<path style="fill:#123148; stroke:none;" d="M993 619.424C980.699 621.039 968.307 621.371 956 623.435C923.224 628.932 890.751 639.394 861 654.27C764.536 702.502 695.162 799.744 682.155 907C673.986 974.361 685.894 1042.33 716.247 1103C722.306 1115.11 729.331 1126.86 737.026 1138C744.575 1148.93 752.598 1157.75 767 1154.32C780.01 1151.22 785.732 1136.76 780.906 1125C778.767 1119.79 774.879 1115.61 771.746 1111C766.52 1103.31 761.732 1095.18 757.309 1087C742.534 1059.68 732.261 1029.62 727.246 999C712.837 911.023 738.933 819.657 800.089 754C819.534 733.125 842.438 715.438 867 701.011C950.34 652.059 1057.41 649.411 1143 694.32C1169.48 708.213 1192.89 725.888 1214 747C1228.08 761.082 1241.24 776.135 1251.95 793C1273.26 826.577 1290.36 865.264 1295.72 905C1297.13 915.514 1298.87 926.392 1299 937C1299.13 948.079 1297.63 960.031 1299.21 971C1301.06 983.82 1313.74 991.773 1326 988.76C1346.9 983.622 1344.06 956.726 1342.91 940C1339.67 892.729 1329.99 846.774 1308.75 804C1264.72 715.307 1184.76 652.059 1089 628.127C1065.09 622.151 1040.65 619 1016 619C1008.4 619 1000.55 618.434 993 619.424M942 772C943.015 759.246 947.417 746.521 950 734C947.314 733.499 944.73 733.117 942 733C938.945 746.207 935.435 761.613 929.891 773.985C927.795 778.664 922.902 780.668 920.569 785.09C918.099 789.77 917.597 795.84 916.87 801C915.309 812.076 911.622 825.993 914.943 836.999C917.842 846.609 929.787 847.345 933.637 856.015C941.81 874.419 954.174 892.054 973 901C968.182 903.539 962.876 904.832 958 907.27C945.349 913.595 933.114 924.076 927 937C916.968 930.365 907.881 922.197 898 915.28C894.695 912.967 890.336 908.495 886 908.697C879.715 908.989 875.421 916.094 869 917C873.065 925.555 882.629 932.897 885.14 942C886.546 947.099 881.036 953.301 881.379 959C882.45 976.824 899.314 988.098 916 985C917.76 989.643 920.88 993.519 923 998C919.082 998.931 915.445 1000.34 912 1002.47C909.481 1004.02 907.137 1005.88 905.108 1008.04C892.314 1021.66 909.533 1040.53 920 1049.71C923.09 1052.43 926.833 1054.83 929.298 1058.17C932.011 1061.84 933.203 1066.91 935.248 1071C939.98 1080.46 946.189 1090.05 955 1096.2C961.717 1100.89 971.905 1101.56 979 1097.16C983.066 1094.63 985.411 1090.38 989.17 1087.56C992.578 1085.01 998.782 1083.62 1003 1083.47C1006.66 1083.34 1012.67 1084.48 1015.57 1086.85C1018.04 1088.88 1018.53 1092.49 1020.43 1094.98C1024.89 1100.82 1031.9 1102.91 1039 1101.67C1052.2 1099.36 1063.87 1085.92 1068.54 1074C1070.27 1069.57 1070.43 1064.35 1072.51 1060.1C1074.18 1056.71 1077.99 1055.26 1081 1053.3C1084.98 1050.71 1088.64 1047.68 1091.67 1044C1103.31 1029.87 1094.25 1009.77 1087 996C1092.36 994.221 1096.79 990.418 1101 986.711C1109.09 979.58 1116.92 969.296 1116.92 958C1116.92 950.505 1113.05 944.533 1108.41 939C1099.93 928.898 1087.91 918.718 1075 915C1085.84 909.93 1096.19 905.631 1106 898.572C1111.51 894.607 1116.01 888.09 1122 885.024C1128.47 881.712 1140.22 885.277 1145.27 879.566C1150.41 873.757 1150.34 860.37 1151.8 853C1153.11 846.411 1153.93 839.656 1154.87 833C1155.31 829.89 1156.4 826.162 1155.67 823.044C1155.03 820.33 1153.25 819.262 1151 818C1154.16 807.592 1154.9 795.784 1156.42 785C1156.87 781.851 1157.12 774.201 1151.43 776.647C1148.45 777.928 1148.34 783.296 1147.8 786C1145.93 795.327 1144.38 804.79 1142 814C1136.75 797.391 1136.75 779.806 1126.08 765.001C1117.52 753.128 1105.01 744.168 1092 737.756C1058.9 721.443 1014.86 717.224 981 733.32C971.224 737.967 962.334 745.528 955.669 754C950.981 759.959 948.171 767.417 942 772z"/>
<path style="fill:#fefdf9; stroke:none;" d="M937 858C939.649 851.686 938.757 842.875 940.211 836C944.767 814.447 953.293 792.573 972 779.44C999.967 759.807 1040.21 764.614 1070 777.012C1084.03 782.851 1098.93 792.58 1105.13 807C1109.9 818.113 1109.9 830.232 1109.09 842C1107.71 862.043 1103.21 880.922 1097 900C1132.76 882.189 1141.27 838.814 1135.25 803C1133.02 789.779 1128.81 775.72 1120.49 765C1111.96 754.01 1100.43 746.594 1088 740.703C1054.33 724.74 1007.73 719.66 975 740.698C955.813 753.033 942.491 776.396 936.144 798C930.016 818.859 930.283 837.35 937 858M944 735L932 776C939.309 773.804 939.512 768.67 941.13 762C943.222 753.374 945.31 744.715 947 736L944 735M931 848C926.005 822.245 931.136 798.19 943 775C936.728 776.118 927.463 779.826 923.564 785.094C920.94 788.641 920.452 793.768 919.754 798C918.279 806.936 917.001 815.939 917 825C917 829.016 916.134 834.297 918.028 837.985C920.461 842.725 926.38 845.814 931 848M1151 779C1150.74 791.477 1145.54 803.481 1145 816L1149 817C1150 804.4 1152.59 791.409 1155 779L1151 779M1078 800C1077.93 803.435 1078.94 804.459 1082 806L1083 805C1081.89 802.134 1080.81 801.229 1078 800M1085 810C1085.29 816.573 1087.67 822.631 1089.11 829C1089.92 832.543 1089.93 835.97 1092 839C1096.17 830.332 1094.22 814.79 1085 810M1142 818C1142 833.609 1140.48 848.368 1134.55 863C1131.97 869.355 1127.41 874.641 1125 881C1129.71 880.405 1138.86 880.882 1142.41 877.401C1145.18 874.688 1145.29 868.615 1146 865C1148.01 854.778 1150.04 844.337 1151.17 834C1151.52 830.782 1153.25 826.385 1152.23 823.214C1150.98 819.349 1145.41 818.512 1142 818M951 825C944.758 844.649 948.534 866.826 963.04 881.999C967.864 887.045 972.964 891.73 980 893C977.398 883.73 966.557 877.26 961.467 869C952.898 855.093 953 840.747 953 825L951 825M930 938C933.666 938.076 937.35 938.984 941 938.791C948.705 938.383 956.241 936.16 964 936C965.079 931.51 966.933 928.441 970 925C970.259 929.246 968.641 932.855 968 937C976.832 937.001 985.379 938.153 994 940C997.951 940.846 1002.54 941.427 1005.96 943.728C1012.16 947.901 1017.1 956.739 1021 963C1025.78 959.225 1031 958.434 1036 955.44C1047.3 948.668 1056.23 942.593 1070 942C1068.38 939.242 1067.27 937.191 1067 934C1072.28 938.075 1073.72 943.781 1077.65 948.83C1080.27 952.203 1083.89 954.774 1086.71 958.001C1093 965.202 1097.05 972.958 1100 982L1102 982C1105.88 976.316 1111.1 970.969 1112.61 964C1117.04 943.497 1092.48 925.791 1076 919.019C1068.56 915.959 1062.53 918.204 1055 919.536C1046.63 921.018 1037.48 921.64 1029 920.83C1017.68 919.748 1006.56 916.738 996 912.55C990.617 910.414 984.737 906.3 979 905.481C974.434 904.829 969.165 907.185 965 908.812C950.93 914.307 937.562 924.854 930 938M886 910C882.02 913.068 877.422 915.506 875 920C886.703 923.201 897.612 930.283 907 937.808C911.254 941.218 915.698 948.282 921.039 949.682C924.532 950.598 928.425 949.785 932 950.3C937.114 951.037 941.728 953.272 947 952.826C958.139 951.885 968.747 949.999 980 950C984.768 950 990.435 949.579 994.911 951.564C1005.88 956.428 1008.44 974.273 1020 978C1020 973.147 1020.86 967.449 1018.58 963C1015.81 957.589 1010.69 949.395 1005.7 945.854C1002 943.233 996.348 942.684 992 941.801C980.23 939.409 968.02 938.266 956 939.089C946.481 939.742 937.553 942.216 928 939.701C922.61 938.281 918.301 933.199 914 929.887C905.026 922.976 895.907 915.521 886 910M891.043 944.786C884.599 947.003 883.561 956.403 884.901 962C887.475 972.757 900.71 986.593 912.995 981.848C930.663 975.025 910.231 955.483 903 949.619C899.823 947.043 895.481 943.258 891.043 944.786M1040 958C1043.86 959.836 1047.69 961.54 1050.99 964.329C1063.28 974.738 1061.78 989.164 1058 1003C1064.43 1002.72 1070.98 1001.23 1077 998.934C1083 996.65 1095.49 990.792 1097.21 983.985C1098.64 978.35 1092.9 969.411 1089.91 965C1085.4 958.358 1077.84 950.311 1070 947.702C1060.65 944.589 1045.94 950.837 1040 958M1023 980C1009.13 980.759 1008.38 997.062 1018.02 1004.44C1026.79 1011.16 1043.31 1013.02 1051.67 1004.67C1059.27 997.08 1058.88 980.776 1053.52 972.015C1049.13 964.847 1031.7 955.025 1024.74 964.228C1021.72 968.226 1023 975.282 1023 980M1019 1010C1019.5 1013.94 1018.81 1019.38 1020.18 1023C1022.41 1028.85 1028.53 1033.71 1031.91 1039C1037.37 1047.53 1039.92 1057.94 1040 1068C1052.75 1064.51 1065.79 1058.14 1077 1051.19C1082.42 1047.82 1088.37 1043.87 1091.31 1038C1097.26 1026.11 1091.1 1009.46 1085 999C1079.59 1000.55 1074.51 1002.81 1069 1004.12C1064.81 1005.11 1060.03 1005.16 1056 1006.58C1050.17 1008.65 1046.54 1013.11 1040 1013.83C1032.31 1014.67 1026.21 1011.97 1019 1010M929 1053C929.64 1040.66 940.408 1030.44 953 1032.44C958.829 1033.37 964.213 1037.66 970 1037.8C978.828 1038.02 988.394 1032.78 997 1031C993.535 1028.62 989.091 1028.42 985 1027.6C978.572 1026.32 972.305 1024.79 966 1023C970.515 1021.2 974.379 1022.81 979 1023.79C990.557 1026.25 1004.8 1031.66 1014.68 1022.21C1019.45 1017.66 1016.66 1006.25 1009.96 1005.15C993.697 1002.47 978.199 1011.14 962 1009.95C957.192 1009.59 953.445 1006.64 949 1005.1C943.014 1003.02 937.197 1003.3 931 1003.03C927.927 1002.89 925.062 1002.03 922 1002.81C919.173 1003.52 916.435 1004.98 914 1006.55C910.755 1008.64 907.178 1011.27 905.742 1015C903.945 1019.67 905.883 1024.89 908.174 1029C913.206 1038.02 920.547 1047.05 929 1053M972 1040C978.518 1049.25 988.303 1056.18 990.532 1068C991.489 1073.07 990.398 1077.95 990 1083C1000.97 1082.04 1012.57 1077.47 1023 1074C1026.57 1072.81 1032.48 1071.99 1035.14 1069.16C1037.68 1066.45 1036.27 1061.27 1035.84 1058C1034.62 1048.75 1029.7 1040.16 1023.9 1033C1022.04 1030.7 1019.87 1027.3 1016.96 1026.24C1012.95 1024.78 1007.58 1029.09 1004 1030.55C994.143 1034.57 982.653 1039.07 972 1040M946 1035C950.198 1038.53 955.028 1041.04 958.91 1045.04C971.367 1057.87 978.604 1075.31 980 1093C989.261 1085.33 990.456 1070.35 984.954 1060C977.131 1045.29 962.689 1035.01 946 1035M939.04 1037.76C930.986 1040.75 930.431 1052.19 932.439 1059C936.053 1071.26 944.117 1084.54 954 1092.67C959.242 1096.98 967.217 1099.93 973.852 1096.85C979.871 1094.06 976.32 1082.83 975.105 1078C971.9 1065.24 964.185 1051.77 953.999 1043.33C950.286 1040.25 944.148 1035.86 939.04 1037.76M1067 1060C1053.64 1068.5 1035.48 1074.8 1020 1078C1020 1081.35 1019.85 1084.75 1020.79 1088C1023.58 1097.63 1033.32 1099.96 1042 1096.52C1052.55 1092.33 1061.37 1081.49 1065.14 1071C1066.38 1067.53 1068.06 1063.59 1067 1060M1009 1081C1011.52 1082.59 1014.1 1083.33 1017 1084L1017 1080L1009 1081z"/>
<path style="fill:#123148; stroke:none;" d="M1223 1150.53C1212.83 1152.88 1204.73 1163.77 1197 1170.25C1182.37 1182.51 1166.61 1193.19 1150 1202.58C1117.03 1221.2 1079.48 1232.22 1042 1236.71C1032.02 1237.91 1021.99 1237.66 1012 1238.54C993.952 1240.12 973.707 1236.61 956 1233.2C944.779 1231.03 933.529 1227.6 924.529 1237.33C916.001 1246.55 917.423 1263.03 928.015 1270.03C936.828 1275.86 949.812 1276.57 960 1278.25C1009.62 1286.43 1062.04 1281.88 1110 1266.97C1155.19 1252.93 1199.24 1229.28 1234 1196.91C1239.92 1191.4 1247.57 1185.24 1249.47 1177C1253.16 1161.02 1239.14 1146.8 1223 1150.53M847 1496L847 1528C853.222 1527.66 857.361 1524.64 860 1519C876.272 1529.03 893.292 1532.81 912 1526.64C930.42 1520.57 942.644 1501.83 933.004 1483C925.251 1467.86 906.46 1460.99 893 1452.14C884.219 1446.36 876.493 1438.27 878.213 1427C880.955 1409.02 900.962 1411.04 910.96 1421.04C914.75 1424.83 917.402 1429.22 919.741 1434C920.875 1436.32 921.83 1440.24 924.414 1441.38C928.425 1443.15 929.845 1439.08 929.981 1436C930.361 1427.36 930 1418.64 930 1410C923.778 1410.34 919.639 1413.36 917 1419C908.935 1413.27 900.114 1408.57 890 1408.1C867.02 1407.06 842.898 1422.56 850.57 1448C857.837 1472.1 886.191 1475.93 901.895 1492.09C909.284 1499.69 909.656 1510.75 902.471 1518.7C890.948 1531.45 871.434 1523.49 862.529 1512C857.214 1505.14 856.925 1496.12 847 1496M1060 1408.43C1047.17 1410.17 1035.16 1414.18 1026.17 1424.01C1014.86 1436.39 1012 1452.84 1012 1469C1012 1486.01 1015.21 1503.51 1028.04 1515.91C1040.79 1528.23 1059.96 1531.16 1077 1528.7C1106.56 1524.44 1119 1496.86 1119 1470C1119 1446.53 1112.63 1423.01 1089 1412.87C1084.54 1410.96 1079.82 1409.62 1075 1409.05C1069.92 1408.46 1065.11 1407.73 1060 1408.43M664 1411L664 1414C676.266 1415.61 678.703 1431.21 683.232 1441C692.701 1461.47 701.762 1482.24 710.588 1503C713.157 1509.04 715.993 1514.97 718.588 1521C719.565 1523.27 720.389 1526.64 722.565 1528.11C725.427 1530.04 727.659 1527.36 728.782 1524.98C732.065 1518.02 734.31 1510.23 736.958 1503C743.798 1484.32 750.565 1465.61 757.588 1447C760.69 1438.78 763.029 1429.98 766.745 1422.02C769.698 1415.69 779.149 1417.36 781 1411L750 1411C752.349 1415.13 760.044 1415.77 761.068 1420.21C762.235 1425.27 756.668 1434.21 755 1439C748.936 1456.42 741.717 1473.46 736 1491C726.98 1474.08 720.075 1455.59 712.424 1438C708.524 1429.03 705.269 1418.31 696 1413.44C687.012 1408.73 673.832 1411 664 1411M786 1411L786 1414C788.739 1414.37 792.335 1414.63 794.397 1416.73C798.122 1420.52 796 1432.03 796 1437L796 1502C796 1506.8 798.007 1517.6 794.397 1521.27C792.336 1523.37 788.739 1523.63 786 1524L786 1527L833 1527L833 1524C830.261 1523.63 826.664 1523.37 824.603 1521.27C820.993 1517.6 823 1506.8 823 1502L823 1437C823 1432.03 820.878 1420.52 824.603 1416.73C826.664 1414.63 830.261 1414.37 833 1414L833 1411L786 1411M948 1411C950.441 1414.87 956.376 1414.28 957.682 1419.06C959.618 1426.14 958 1435.67 958 1443L958 1493L958 1511C958 1513.71 958.535 1517.23 957.397 1519.77C955.661 1523.65 950.258 1523.31 948 1527L996 1527L996 1524C993.261 1523.63 989.664 1523.37 987.603 1521.27C985.552 1519.18 986.005 1515.67 986 1513L986 1494L986 1441C986 1434.63 983.976 1424.09 986.603 1418.23C988.339 1414.35 993.742 1414.69 996 1411L948 1411M1133 1411C1135.66 1415.37 1142.4 1414.5 1144.4 1419.14C1145.62 1422 1145 1425.97 1145 1429L1145 1449L1145 1520C1140.27 1520.81 1133.71 1522.09 1132 1527L1163 1527C1161.29 1522.09 1154.73 1520.81 1150 1520L1150 1440C1169.89 1461.59 1188.38 1484.66 1207.42 1507C1213.62 1514.28 1221.79 1529.23 1232 1530L1232 1418C1236.73 1417.19 1243.29 1415.91 1245 1411L1214 1411C1216.05 1416.89 1224.01 1414.85 1226.4 1420.22C1228.6 1425.18 1227 1433.64 1227 1439L1227 1484C1212.87 1467.82 1199.14 1451.28 1185.13 1435C1178.1 1426.83 1171.33 1416.56 1161 1412.35C1152.93 1409.07 1141.6 1411 1133 1411z"/>
<path style="fill:#fefdf9; stroke:none;" d="M1061 1412.65C1051.39 1415.54 1046.92 1426.15 1044.43 1435C1038.65 1455.46 1038.66 1482.53 1044.43 1503C1047.58 1514.16 1055.88 1529.61 1070 1525.35C1079.61 1522.45 1083.51 1512.65 1086.33 1504C1090.19 1492.16 1090 1480.31 1090 1468C1090 1457.23 1090.19 1446.4 1086.97 1436C1083.43 1424.52 1076.22 1408.06 1061 1412.65z"/>
<path style="fill:#123148; stroke:none;" d="M915 1725L910 1725C909.542 1746.52 882.422 1766.69 864.004 1749.9C852.308 1739.23 850.928 1724.84 849.911 1710C849.012 1696.89 849.189 1683.96 852.015 1671C854.419 1659.97 861.136 1645.32 874 1644.11C884.816 1643.08 893.582 1650.41 899.134 1659C903.104 1665.14 903.609 1672.72 912 1673L912 1641C905.931 1641.46 902.387 1645.2 899 1650C878.694 1632.74 845.347 1637.39 830.699 1660C815.869 1682.9 815.28 1720.12 832.518 1742C849.323 1763.33 889.594 1769.09 907.471 1746C912.314 1739.74 914.024 1732.68 915 1725M1258 1639.43C1245.17 1641.17 1233.16 1645.18 1224.17 1655.01C1212.86 1667.39 1210 1683.84 1210 1700C1210 1717.01 1213.21 1734.51 1226.04 1746.91C1238.79 1759.23 1257.96 1762.16 1275 1759.7C1304.56 1755.44 1317 1727.86 1317 1701C1317 1677.53 1310.63 1654.01 1287 1643.87C1282.54 1641.96 1277.82 1640.62 1273 1640.05C1267.92 1639.46 1263.11 1638.73 1258 1639.43M917 1758L948 1758C946.661 1753.4 940.284 1752.11 936 1751C937.7 1744.79 940.533 1738.94 942.989 1733C944.068 1730.39 944.918 1726.68 947.418 1725.03C952.2 1721.86 963.418 1724 969 1724C973.537 1724 981.826 1722.42 985.502 1725.6C988.05 1727.81 989.139 1732 990.421 1735C993.656 1742.58 996.47 1750.68 1004.01 1755.03C1013.21 1760.35 1026.78 1758 1037 1758C1034.84 1753.92 1029.8 1754.02 1027.35 1749.94C1022.32 1741.53 1019.38 1731.04 1015.59 1722C1008.45 1705 1001.44 1687.94 994.157 1671C991.021 1663.7 988.012 1656.35 984.995 1649C983.933 1646.41 982.732 1641.57 979.806 1640.5C976.062 1639.13 974.489 1643.35 973.398 1646C970.519 1653 967.743 1660.06 964.727 1667C953.396 1693.08 944.227 1720.33 931.982 1746C928.795 1752.67 918.867 1751.59 917 1758M478 1642L478 1645C480.739 1645.37 484.335 1645.63 486.397 1647.73C490.122 1651.52 488 1663.03 488 1668L488 1733C488 1737.8 490.007 1748.6 486.397 1752.27C484.336 1754.37 480.739 1754.63 478 1755L478 1758L570 1758L570 1728C557.65 1728.4 554.212 1743.75 554 1754L515 1754L515 1703C519.824 1703 529.65 1701.13 533.44 1704.6C539.342 1710.01 536.9 1718.67 547 1719L547 1682C536.533 1682.34 539.345 1690.91 533.437 1696.4C529.685 1699.88 519.797 1698 515 1698L515 1646L551 1646C551.029 1656.49 554.276 1671.59 567 1672L567 1642L478 1642M585 1642L585 1645C587.739 1645.37 591.336 1645.63 593.397 1647.73C597.122 1651.52 595 1663.03 595 1668L595 1733C595 1737.8 597.007 1748.6 593.397 1752.27C591.336 1754.37 587.739 1754.63 585 1755L585 1758C610.255 1758 642.621 1763.23 665 1748.91C697.807 1727.91 696.835 1667.9 662 1649.32C639.539 1637.34 609.56 1642 585 1642M701 1642L701 1645C703.71 1645.33 707.469 1645.57 709.523 1647.62C711.19 1649.29 710.98 1651.83 711 1654C711.049 1659.33 711 1664.67 711 1670L711 1710C711 1720.66 710.719 1731.5 716.435 1741C730.744 1764.79 775.005 1769.12 790.935 1745C798.698 1733.25 799 1719.59 799 1706L799 1671C799 1665.14 797.792 1657.76 799.218 1652.06C800.781 1645.82 810.208 1648.15 812 1642L780 1642C783.014 1647.22 791.09 1646.52 793.397 1652.11C795.824 1657.99 794 1667.69 794 1674C794 1692.03 796.59 1712.45 791.841 1730C787.25 1746.97 767.328 1765.22 750.004 1751.61C742.069 1745.37 739.982 1736.5 738.845 1727C736.683 1708.95 738 1690.18 738 1672L738.001 1655C738.018 1652.57 737.752 1649.61 739.603 1647.73C741.664 1645.63 745.261 1645.37 748 1645L748 1642L701 1642M1037 1642L1037 1672C1049.31 1671.6 1052.92 1656.25 1053 1646L1072 1646L1072 1720L1072 1741C1072 1743.98 1072.65 1747.98 1071.4 1750.77C1069.66 1754.65 1064.26 1754.31 1062 1758L1110 1758C1107.74 1754.31 1102.34 1754.65 1100.6 1750.77C1099.35 1747.98 1100 1743.98 1100 1741L1100 1720L1100 1646L1119 1646C1119.03 1655.94 1121.87 1671.09 1134 1672L1134 1642L1037 1642M1147 1642L1147 1645C1149.74 1645.37 1153.34 1645.63 1155.4 1647.73C1159.01 1651.4 1157 1662.2 1157 1667L1157 1732C1157 1736.97 1159.12 1748.48 1155.4 1752.27C1153.34 1754.37 1149.74 1754.63 1147 1755L1147 1758L1194 1758L1194 1755C1191.26 1754.63 1187.66 1754.37 1185.6 1752.27C1181.99 1748.6 1184 1737.8 1184 1733L1184 1668C1184 1663.03 1181.88 1651.52 1185.6 1647.73C1187.66 1645.63 1191.26 1645.37 1194 1645L1194 1642L1147 1642M1332 1642C1333.6 1647.48 1341.35 1645.08 1342.78 1651.02C1345.1 1660.6 1343 1673.14 1343 1683L1343 1751C1338.49 1751.68 1331.39 1753.23 1330 1758L1362 1758C1358.99 1752.78 1350.91 1753.48 1348.6 1747.89C1346.08 1741.77 1348 1731.57 1348 1725L1348 1671C1368.47 1691.9 1386.78 1715.6 1405.59 1738C1411.55 1745.1 1420.15 1760.24 1430 1761L1430 1685L1430 1663C1430 1659.65 1429.3 1655.27 1430.6 1652.11C1432.91 1646.52 1440.99 1647.22 1444 1642L1412 1642C1413.74 1647.99 1422.25 1645.75 1424.52 1651.16C1426.62 1656.14 1425 1664.64 1425 1670L1425 1715C1412.05 1699.04 1398.26 1683.77 1385.08 1668C1378.03 1659.57 1370.42 1648.04 1360 1643.53C1351.97 1640.05 1340.6 1642 1332 1642z"/>
<path style="fill:#fefdf9; stroke:none;" d="M1259 1643.65C1249.39 1646.54 1244.92 1657.15 1242.43 1666C1236.65 1686.46 1236.66 1713.53 1242.43 1734C1245.58 1745.16 1253.88 1760.61 1268 1756.35C1277.61 1753.45 1281.51 1743.65 1284.33 1735C1288.19 1723.16 1288 1711.31 1288 1699C1288 1688.23 1288.19 1677.4 1284.97 1667C1281.43 1655.52 1274.22 1639.06 1259 1643.65M622 1646L622 1754C627.427 1754 632.829 1753.75 638 1751.9C660.121 1743.97 659 1713.98 659 1695C659 1680.97 657.534 1663.73 646.7 1653.47C639.938 1647.06 630.892 1646.01 622 1646M966 1677C958.89 1690.34 952.871 1705.69 948 1720L984 1720C981.474 1710.77 977.068 1701.78 973.281 1693C970.999 1687.71 969.187 1681.8 966 1677z"/>
</svg>
